<?xml version="1.0" standalone="no"?>
<!DOCTYPE svg PUBLIC "-//W3C//DTD SVG 20010904//EN"
 "http://www.w3.org/TR/2001/REC-SVG-20010904/DTD/svg10.dtd">
<svg version="1.0" xmlns="http://www.w3.org/2000/svg"
 width="250.000000pt" height="250.000000pt" viewBox="0 0 500.000000 500.000000"
 preserveAspectRatio="xMidYMid meet">

<g transform="translate(0.000000,556.000000) scale(0.100000,-0.100000)"
fill="#ba3030" stroke="none">
<path d="M2200 5050 c-69 -13 -202 -63 -266 -101 -74 -44 -209 -179 -253 -252
-19 -32 -32 -60 -29 -62 2 -2 72 -5 156 -6 l151 -1 60 47 c34 25 87 58 118 73
l58 27 725 0 725 0 75 -36 c79 -37 170 -116 209 -180 31 -51 28 -67 -16 -74
-60 -10 -103 -25 -176 -62 -209 -104 -360 -301 -401 -523 l-12 -65 -401 -3
-400 -2 -18 72 c-58 243 -185 410 -393 517 -129 66 -193 81 -338 81 -141 0
-219 -16 -323 -68 -195 -95 -326 -246 -399 -457 l-27 -80 0 -720 c0 -813 -3
-772 79 -940 90 -181 227 -303 420 -374 l70 -26 31 -82 c71 -180 197 -319 369
-404 163 -80 146 -79 926 -79 729 0 760 2 864 49 25 12 58 26 72 31 84 32 253
191 307 289 l28 50 -134 0 c-74 0 -142 4 -151 7 -12 5 -29 -5 -54 -28 -62 -58
-106 -86 -173 -110 l-64 -23 -690 0 c-647 0 -693 1 -745 19 -111 37 -215 116
-265 201 -32 56 -32 73 3 81 140 30 265 95 363 189 62 58 124 138 153 194 24
46 76 209 76 237 0 13 4 25 8 28 13 8 788 10 801 2 6 -4 11 -18 11 -32 0 -36
44 -163 84 -242 120 -235 382 -392 655 -392 188 0 345 59 495 184 69 58 158
181 194 267 62 151 63 160 60 934 l-3 700 -29 80 c-37 105 -56 140 -115 219
-53 69 -94 109 -170 165 -53 38 -171 96 -217 106 -29 6 -34 13 -59 83 -38 107
-102 206 -187 289 -83 79 -171 132 -297 177 l-86 31 -705 1 c-388 1 -725 -2
-750 -6z m-175 -885 c74 -48 148 -134 189 -220 20 -42 36 -82 36 -89 0 -58
-176 21 -274 124 -34 35 -70 87 -91 132 -37 77 -43 104 -23 110 22 8 110 -24
163 -57z m1958 21 c-4 -55 -60 -153 -126 -218 -56 -56 -165 -118 -229 -132
-26 -6 -28 -4 -28 23 0 82 109 236 214 303 49 32 143 69 161 64 6 -2 9 -20 8
-40z m-2381 -69 c68 -252 249 -440 498 -521 41 -13 92 -27 113 -31 l37 -6 0
-329 0 -330 135 0 135 0 2 328 3 327 570 5 c568 5 570 5 635 29 144 52 220
100 315 196 102 103 160 200 194 324 11 41 23 76 26 79 10 11 78 -32 136 -85
40 -38 69 -77 100 -139 l44 -87 3 -689 c3 -767 4 -758 -63 -868 -57 -94 -180
-200 -217 -188 -6 2 -21 42 -35 88 -39 135 -85 213 -188 315 -111 112 -227
177 -364 205 l-86 17 -3 332 -2 332 -133 -3 -132 -3 -3 -326 -2 -326 -553 -6
c-319 -4 -577 -11 -612 -17 -91 -17 -251 -101 -334 -177 -107 -97 -204 -261
-219 -370 -10 -67 -29 -74 -91 -34 -105 68 -181 177 -207 300 -20 96 -20 1280
1 1394 14 80 48 149 108 223 34 41 136 114 156 111 8 -1 22 -30 33 -70z m643
-1674 c-10 -57 -82 -172 -143 -230 -59 -56 -164 -112 -224 -120 -33 -5 -38 -3
-38 15 0 28 68 159 110 210 68 85 196 161 274 162 27 0 28 -1 21 -37z m1441
20 c114 -38 213 -133 275 -261 42 -87 44 -112 8 -112 -31 0 -147 56 -201 97
-75 58 -168 209 -168 274 0 24 21 24 86 2z"/>
</g>
</svg>
